<svg width="283" height="172" viewBox="0 0 283 172" fill="none" xmlns="http://www.w3.org/2000/svg">
<g filter="url(#filter0_d_1_90)">
<g filter="url(#filter1_d_1_90)">
<mask id="path-1-outside-1_1_90" maskUnits="userSpaceOnUse" x="3.625" y="25.3074" width="83" height="101" fill="black">
<rect fill="white" x="3.625" y="25.3074" width="83" height="101"/>
<path d="M61.3125 90.4949H83.1875C82.8958 96.8282 81.1875 102.412 78.0625 107.245C74.9375 112.078 70.6042 115.849 65.0625 118.557C59.5625 121.224 53.0625 122.557 45.5625 122.557C39.4792 122.557 34.0417 121.537 29.25 119.495C24.5 117.453 20.4583 114.516 17.125 110.682C13.8333 106.849 11.3125 102.203 9.5625 96.7449C7.85417 91.2865 7 85.1407 7 78.3074V73.3699C7 66.5365 7.89583 60.3907 9.6875 54.9324C11.5208 49.4324 14.1042 44.7657 17.4375 40.9324C20.8125 37.0574 24.8542 34.099 29.5625 32.0574C34.2708 30.0157 39.5 28.9949 45.25 28.9949C53.1667 28.9949 59.8542 30.4115 65.3125 33.2449C70.7708 36.0782 75 39.974 78 44.9324C81 49.849 82.7708 55.4532 83.3125 61.7449H61.4375C61.3542 58.3282 60.7708 55.474 59.6875 53.1824C58.6042 50.849 56.8958 49.099 54.5625 47.9324C52.2292 46.7657 49.125 46.1824 45.25 46.1824C42.5417 46.1824 40.1875 46.6824 38.1875 47.6824C36.1875 48.6824 34.5208 50.2657 33.1875 52.4324C31.8542 54.599 30.8542 57.4115 30.1875 60.8699C29.5625 64.2865 29.25 68.4115 29.25 73.2449V78.3074C29.25 83.1407 29.5417 87.2657 30.125 90.6824C30.7083 94.099 31.6458 96.8907 32.9375 99.0574C34.2292 101.224 35.8958 102.828 37.9375 103.87C40.0208 104.87 42.5625 105.37 45.5625 105.37C48.8958 105.37 51.7083 104.849 54 103.807C56.2917 102.724 58.0625 101.099 59.3125 98.9324C60.5625 96.724 61.2292 93.9115 61.3125 90.4949Z"/>
</mask>
<path d="M61.3125 90.4949H83.1875C82.8958 96.8282 81.1875 102.412 78.0625 107.245C74.9375 112.078 70.6042 115.849 65.0625 118.557C59.5625 121.224 53.0625 122.557 45.5625 122.557C39.4792 122.557 34.0417 121.537 29.25 119.495C24.5 117.453 20.4583 114.516 17.125 110.682C13.8333 106.849 11.3125 102.203 9.5625 96.7449C7.85417 91.2865 7 85.1407 7 78.3074V73.3699C7 66.5365 7.89583 60.3907 9.6875 54.9324C11.5208 49.4324 14.1042 44.7657 17.4375 40.9324C20.8125 37.0574 24.8542 34.099 29.5625 32.0574C34.2708 30.0157 39.5 28.9949 45.25 28.9949C53.1667 28.9949 59.8542 30.4115 65.3125 33.2449C70.7708 36.0782 75 39.974 78 44.9324C81 49.849 82.7708 55.4532 83.3125 61.7449H61.4375C61.3542 58.3282 60.7708 55.474 59.6875 53.1824C58.6042 50.849 56.8958 49.099 54.5625 47.9324C52.2292 46.7657 49.125 46.1824 45.25 46.1824C42.5417 46.1824 40.1875 46.6824 38.1875 47.6824C36.1875 48.6824 34.5208 50.2657 33.1875 52.4324C31.8542 54.599 30.8542 57.4115 30.1875 60.8699C29.5625 64.2865 29.25 68.4115 29.25 73.2449V78.3074C29.25 83.1407 29.5417 87.2657 30.125 90.6824C30.7083 94.099 31.6458 96.8907 32.9375 99.0574C34.2292 101.224 35.8958 102.828 37.9375 103.87C40.0208 104.87 42.5625 105.37 45.5625 105.37C48.8958 105.37 51.7083 104.849 54 103.807C56.2917 102.724 58.0625 101.099 59.3125 98.9324C60.5625 96.724 61.2292 93.9115 61.3125 90.4949Z" fill="white"/>
<path d="M61.3125 90.4949V87.4949H58.3848L58.3134 90.4217L61.3125 90.4949ZM83.1875 90.4949L86.1843 90.6329L86.3288 87.4949H83.1875V90.4949ZM65.0625 118.557L66.3713 121.257L66.3798 121.253L65.0625 118.557ZM29.25 119.495L28.0653 122.251L28.074 122.255L29.25 119.495ZM17.125 110.682L14.849 112.637L14.8551 112.644L14.8612 112.651L17.125 110.682ZM9.5625 96.7449L6.69945 97.6409L6.70256 97.6509L6.70573 97.6608L9.5625 96.7449ZM9.6875 54.9324L6.84142 53.9837L6.83713 53.9968L9.6875 54.9324ZM17.4375 40.9324L15.1753 38.962L15.1737 38.9638L17.4375 40.9324ZM78 44.9324L75.4332 46.4854L75.4391 46.495L78 44.9324ZM83.3125 61.7449V64.7449H86.5819L86.3014 61.4875L83.3125 61.7449ZM61.4375 61.7449L58.4384 61.818L58.5098 64.7449H61.4375V61.7449ZM59.6875 53.1824L56.9665 54.4457L56.9708 54.4551L56.9753 54.4645L59.6875 53.1824ZM30.1875 60.8699L27.2417 60.302L27.239 60.316L27.2365 60.3301L30.1875 60.8699ZM37.9375 103.87L36.5741 106.542L36.6065 106.559L36.6393 106.574L37.9375 103.87ZM54 103.807L55.2414 106.538L55.2618 106.529L55.2821 106.52L54 103.807ZM59.3125 98.9324L61.9111 100.432L61.9172 100.421L61.9233 100.41L59.3125 98.9324ZM61.3125 90.4949V93.4949H83.1875V90.4949V87.4949H61.3125V90.4949ZM83.1875 90.4949L80.1907 90.3569C79.9209 96.2151 78.3512 101.273 75.5432 105.616L78.0625 107.245L80.5818 108.874C84.0238 103.55 85.8708 97.4413 86.1843 90.6329L83.1875 90.4949ZM78.0625 107.245L75.5432 105.616C72.7357 109.958 68.8332 113.375 63.7452 115.862L65.0625 118.557L66.3798 121.253C72.3751 118.323 77.1393 114.198 80.5818 108.874L78.0625 107.245ZM65.0625 118.557L63.7537 115.858C58.7437 118.287 52.7101 119.557 45.5625 119.557V122.557V125.557C53.4149 125.557 60.3813 124.161 66.3713 121.257L65.0625 118.557ZM45.5625 122.557V119.557C39.8163 119.557 34.7887 118.594 30.426 116.735L29.25 119.495L28.074 122.255C33.2946 124.479 39.1421 125.557 45.5625 125.557V122.557ZM29.25 119.495L30.4347 116.739C26.0914 114.872 22.4208 112.201 19.3888 108.714L17.125 110.682L14.8612 112.651C18.4958 116.831 22.9086 120.035 28.0653 122.251L29.25 119.495ZM17.125 110.682L19.401 108.728C16.4031 105.237 14.0633 100.957 12.4193 95.829L9.5625 96.7449L6.70573 97.6608C8.56166 103.45 11.2635 108.461 14.849 112.637L17.125 110.682ZM9.5625 96.7449L12.4256 95.8488C10.8237 90.7305 10 84.8941 10 78.3074H7H4C4 85.3873 4.88468 91.8425 6.69945 97.6409L9.5625 96.7449ZM7 78.3074H10V73.3699H7H4V78.3074H7ZM7 73.3699H10C10 66.7959 10.8621 60.9734 12.5379 55.868L9.6875 54.9324L6.83713 53.9968C4.92961 59.808 4 66.2772 4 73.3699H7ZM9.6875 54.9324L12.5335 55.8811C14.2594 50.7034 16.6614 46.3968 19.7013 42.9009L17.4375 40.9324L15.1737 38.9638C11.5469 43.1346 8.78224 48.1613 6.84145 53.9837L9.6875 54.9324ZM17.4375 40.9324L19.6997 42.9027C22.7816 39.3643 26.4583 36.6734 30.756 34.8097L29.5625 32.0574L28.369 29.305C23.25 31.5247 18.8434 34.7505 15.1753 38.962L17.4375 40.9324ZM29.5625 32.0574L30.756 34.8097C35.0447 32.95 39.8611 31.9949 45.25 31.9949V28.9949V25.9949C39.1389 25.9949 33.4969 27.0814 28.369 29.305L29.5625 32.0574ZM45.25 28.9949V31.9949C52.8197 31.9949 59.004 33.3503 63.9304 35.9075L65.3125 33.2449L66.6946 30.5822C60.7044 27.4728 53.5137 25.9949 45.25 25.9949V28.9949ZM65.3125 33.2449L63.9304 35.9075C68.9306 38.5031 72.7363 42.028 75.4332 46.4854L78 44.9324L80.5668 43.3794C77.2637 37.9201 72.6111 33.6534 66.6946 30.5822L65.3125 33.2449ZM78 44.9324L75.4391 46.495C78.1748 50.9784 79.8178 56.1276 80.3236 62.0022L83.3125 61.7449L86.3014 61.4875C85.7239 54.7788 83.8252 48.7196 80.5609 43.3698L78 44.9324ZM83.3125 61.7449V58.7449H61.4375V61.7449V64.7449H83.3125V61.7449ZM61.4375 61.7449L64.4366 61.6717C64.3464 57.9742 63.7128 54.6779 62.3997 51.9002L59.6875 53.1824L56.9753 54.4645C57.8289 56.2702 58.3619 58.6822 58.4384 61.818L61.4375 61.7449ZM59.6875 53.1824L62.4085 51.919C61.035 48.9606 58.8354 46.7147 55.9041 45.2491L54.5625 47.9324L53.2209 50.6157C54.9563 51.4834 56.1734 52.7375 56.9665 54.4457L59.6875 53.1824ZM54.5625 47.9324L55.9041 45.2491C53.0015 43.7978 49.383 43.1824 45.25 43.1824V46.1824V49.1824C48.867 49.1824 51.4569 49.7337 53.2209 50.6157L54.5625 47.9324ZM45.25 46.1824V43.1824C42.173 43.1824 39.3413 43.7514 36.8459 44.9991L38.1875 47.6824L39.5291 50.3657C41.0337 49.6134 42.9103 49.1824 45.25 49.1824V46.1824ZM38.1875 47.6824L36.8459 44.9991C34.2797 46.2822 32.2175 48.2844 30.6325 50.8601L33.1875 52.4324L35.7425 54.0047C36.8241 52.247 38.0953 51.0826 39.5291 50.3657L38.1875 47.6824ZM33.1875 52.4324L30.6325 50.8601C29.0517 53.4289 27.9525 56.615 27.2417 60.302L30.1875 60.8699L33.1333 61.4377C33.7558 58.2081 34.6566 55.7692 35.7425 54.0047L33.1875 52.4324ZM30.1875 60.8699L27.2365 60.3301C26.569 63.9787 26.25 68.295 26.25 73.2449H29.25H32.25C32.25 68.5281 32.556 64.5944 33.1385 61.4097L30.1875 60.8699ZM29.25 73.2449H26.25V78.3074H29.25H32.25V73.2449H29.25ZM29.25 78.3074H26.25C26.25 83.2493 26.5473 87.5531 27.1678 91.1873L30.125 90.6824L33.0822 90.1775C32.536 86.9783 32.25 83.0322 32.25 78.3074H29.25ZM30.125 90.6824L27.1678 91.1873C27.7916 94.8412 28.8234 98.015 30.3607 100.594L32.9375 99.0574L35.5143 97.5212C34.4682 95.7664 33.625 93.3569 33.0822 90.1775L30.125 90.6824ZM32.9375 99.0574L30.3607 100.594C31.9116 103.195 33.9791 105.218 36.5741 106.542L37.9375 103.87L39.3009 101.198C37.8126 100.438 36.5467 99.2529 35.5143 97.5212L32.9375 99.0574ZM37.9375 103.87L36.6393 106.574C39.2299 107.818 42.242 108.37 45.5625 108.37V105.37V102.37C42.883 102.37 40.8118 101.922 39.2357 101.165L37.9375 103.87ZM45.5625 105.37V108.37C49.1919 108.37 52.4552 107.805 55.2414 106.538L54 103.807L52.7586 101.076C50.9615 101.893 48.5998 102.37 45.5625 102.37V105.37ZM54 103.807L55.2821 106.52C58.1179 105.179 60.3516 103.135 61.9111 100.432L59.3125 98.9324L56.7139 97.4332C55.7734 99.0635 54.4654 100.269 52.7179 101.095L54 103.807ZM59.3125 98.9324L61.9233 100.41C63.4858 97.6498 64.2202 94.314 64.3116 90.568L61.3125 90.4949L58.3134 90.4217C58.2381 93.5091 57.6392 95.7983 56.7017 97.4546L59.3125 98.9324Z" fill="black" mask="url(#path-1-outside-1_1_90)"/>
</g>
<g filter="url(#filter2_d_1_90)">
<mask id="path-3-outside-2_1_90" maskUnits="userSpaceOnUse" x="50.2543" y="24.2193" width="109.341" height="109.341" fill="black">
<rect fill="white" x="50.2543" y="24.2193" width="109.341" height="109.341"/>
<path d="M103.303 52.4888L91.1418 126.721L67.8002 129.94L88.4936 35.225L103.291 33.1845L103.303 52.4888ZM131.324 121.18L99.4645 53.0181L94.004 34.4651L108.987 32.399L154.728 117.953L131.324 121.18ZM125.821 87.6802L128.135 104.459L81.8853 110.836L79.5716 94.0577L125.821 87.6802Z"/>
</mask>
<path d="M103.303 52.4888L91.1418 126.721L67.8002 129.94L88.4936 35.225L103.291 33.1845L103.303 52.4888ZM131.324 121.18L99.4645 53.0181L94.004 34.4651L108.987 32.399L154.728 117.953L131.324 121.18ZM125.821 87.6802L128.135 104.459L81.8853 110.836L79.5716 94.0577L125.821 87.6802Z" fill="white"/>
<path d="M103.303 52.4888L106.264 52.9738L106.303 52.732L106.303 52.4869L103.303 52.4888ZM91.1418 126.721L91.5516 129.693L93.7445 129.39L94.1024 127.206L91.1418 126.721ZM67.8002 129.94L64.8693 129.299L63.9519 133.499L68.21 132.911L67.8002 129.94ZM88.4936 35.225L88.0838 32.2531L86.0097 32.5391L85.5628 34.5846L88.4936 35.225ZM103.291 33.1845L106.291 33.1826L106.289 29.7427L102.881 30.2126L103.291 33.1845ZM131.324 121.18L128.606 122.45L129.543 124.454L131.734 124.152L131.324 121.18ZM99.4645 53.0181L96.5866 53.8651L96.6507 54.0828L96.7468 54.2884L99.4645 53.0181ZM94.004 34.4651L93.5942 31.4932L90.1422 31.9692L91.1261 35.3121L94.004 34.4651ZM108.987 32.399L111.633 30.9846L110.648 29.1417L108.577 29.4272L108.987 32.399ZM154.728 117.953L155.137 120.925L159.404 120.336L157.373 116.538L154.728 117.953ZM125.821 87.6802L128.793 87.2704L128.384 84.2985L125.412 84.7083L125.821 87.6802ZM128.135 104.459L128.545 107.431L131.517 107.021L131.107 104.049L128.135 104.459ZM81.8853 110.836L78.9134 111.246L79.3232 114.218L82.2951 113.808L81.8853 110.836ZM79.5716 94.0577L79.1618 91.0858L76.1899 91.4956L76.5997 94.4675L79.5716 94.0577ZM103.303 52.4888L100.343 52.0038L88.1813 126.236L91.1418 126.721L94.1024 127.206L106.264 52.9738L103.303 52.4888ZM91.1418 126.721L90.732 123.749L67.3904 126.968L67.8002 129.94L68.21 132.911L91.5516 129.693L91.1418 126.721ZM67.8002 129.94L70.7311 130.58L91.4245 35.8653L88.4936 35.225L85.5628 34.5846L64.8693 129.299L67.8002 129.94ZM88.4936 35.225L88.9034 38.1968L103.701 36.1564L103.291 33.1845L102.881 30.2126L88.0838 32.2531L88.4936 35.225ZM103.291 33.1845L100.291 33.1864L100.303 52.4907L103.303 52.4888L106.303 52.4869L106.291 33.1826L103.291 33.1845ZM131.324 121.18L134.042 119.91L102.182 51.7478L99.4645 53.0181L96.7468 54.2884L128.606 122.45L131.324 121.18ZM99.4645 53.0181L102.342 52.1711L96.8819 33.6181L94.004 34.4651L91.1261 35.3121L96.5866 53.8651L99.4645 53.0181ZM94.004 34.4651L94.4138 37.437L109.397 35.3709L108.987 32.399L108.577 29.4272L93.5942 31.4932L94.004 34.4651ZM108.987 32.399L106.342 33.8135L152.082 119.367L154.728 117.953L157.373 116.538L111.633 30.9846L108.987 32.399ZM154.728 117.953L154.318 114.981L130.914 118.208L131.324 121.18L131.734 124.152L155.137 120.925L154.728 117.953ZM125.821 87.6802L122.85 88.09L125.163 104.869L128.135 104.459L131.107 104.049L128.793 87.2704L125.821 87.6802ZM128.135 104.459L127.725 101.487L81.4755 107.865L81.8853 110.836L82.2951 113.808L128.545 107.431L128.135 104.459ZM81.8853 110.836L84.8571 110.427L82.5435 93.6479L79.5716 94.0577L76.5997 94.4675L78.9134 111.246L81.8853 110.836ZM79.5716 94.0577L79.9814 97.0296L126.231 90.652L125.821 87.6802L125.412 84.7083L79.1618 91.0858L79.5716 94.0577Z" fill="black" mask="url(#path-3-outside-2_1_90)"/>
</g>
<g filter="url(#filter3_d_1_90)">
<mask id="path-5-outside-3_1_90" maskUnits="userSpaceOnUse" x="131.625" y="30.3074" width="81" height="97" fill="black">
<rect fill="white" x="131.625" y="30.3074" width="81" height="97"/>
<path d="M135.562 33.3074H171.375C178.375 33.3074 184.458 34.3491 189.625 36.4324C194.792 38.5157 198.771 41.5991 201.562 45.6824C204.396 49.7657 205.812 54.8074 205.812 60.8074C205.812 66.0157 205 70.3699 203.375 73.8699C201.75 77.3699 199.479 80.2657 196.562 82.5574C193.688 84.8074 190.333 86.6616 186.5 88.1199L179.312 92.1824H149.25L149.125 75.2449H171.375C174.167 75.2449 176.479 74.7449 178.312 73.7449C180.146 72.7449 181.521 71.3282 182.438 69.4949C183.396 67.6199 183.875 65.3907 183.875 62.8074C183.875 60.1824 183.396 57.9324 182.438 56.0574C181.479 54.1824 180.062 52.7449 178.188 51.7449C176.354 50.7449 174.083 50.2449 171.375 50.2449H157.5V124.307H135.562V33.3074ZM185.375 124.307L165.25 84.0574L188.5 83.9324L208.875 123.37V124.307H185.375Z"/>
</mask>
<path d="M135.562 33.3074H171.375C178.375 33.3074 184.458 34.3491 189.625 36.4324C194.792 38.5157 198.771 41.5991 201.562 45.6824C204.396 49.7657 205.812 54.8074 205.812 60.8074C205.812 66.0157 205 70.3699 203.375 73.8699C201.75 77.3699 199.479 80.2657 196.562 82.5574C193.688 84.8074 190.333 86.6616 186.5 88.1199L179.312 92.1824H149.25L149.125 75.2449H171.375C174.167 75.2449 176.479 74.7449 178.312 73.7449C180.146 72.7449 181.521 71.3282 182.438 69.4949C183.396 67.6199 183.875 65.3907 183.875 62.8074C183.875 60.1824 183.396 57.9324 182.438 56.0574C181.479 54.1824 180.062 52.7449 178.188 51.7449C176.354 50.7449 174.083 50.2449 171.375 50.2449H157.5V124.307H135.562V33.3074ZM185.375 124.307L165.25 84.0574L188.5 83.9324L208.875 123.37V124.307H185.375Z" fill="white"/>
<path d="M135.562 33.3074V30.3074H132.562V33.3074H135.562ZM189.625 36.4324L188.503 39.2147L189.625 36.4324ZM201.562 45.6824L199.086 47.3755L199.092 47.3841L199.098 47.3926L201.562 45.6824ZM196.562 82.5574L198.411 84.9199L198.416 84.9163L196.562 82.5574ZM186.5 88.1199L185.433 85.3159L185.221 85.3966L185.024 85.5082L186.5 88.1199ZM179.312 92.1824V95.1824H180.102L180.789 94.7941L179.312 92.1824ZM149.25 92.1824L146.25 92.2045L146.272 95.1824H149.25V92.1824ZM149.125 75.2449V72.2449H146.103L146.125 75.267L149.125 75.2449ZM182.438 69.4949L179.766 68.1296L179.76 68.1414L179.754 68.1532L182.438 69.4949ZM178.188 51.7449L176.751 54.3786L176.763 54.3853L176.776 54.3919L178.188 51.7449ZM157.5 50.2449V47.2449H154.5V50.2449H157.5ZM157.5 124.307V127.307H160.5V124.307H157.5ZM135.562 124.307H132.562V127.307H135.562V124.307ZM185.375 124.307L182.692 125.649L183.521 127.307H185.375V124.307ZM165.25 84.0574L165.234 81.0574L160.409 81.0834L162.567 85.399L165.25 84.0574ZM188.5 83.9324L191.165 82.5554L190.322 80.9226L188.484 80.9324L188.5 83.9324ZM208.875 123.37H211.875V122.641L211.54 121.993L208.875 123.37ZM208.875 124.307V127.307H211.875V124.307H208.875ZM135.562 33.3074V36.3074H171.375V33.3074V30.3074H135.562V33.3074ZM171.375 33.3074V36.3074C178.085 36.3074 183.772 37.3068 188.503 39.2147L189.625 36.4324L190.747 33.6501C185.145 31.3913 178.665 30.3074 171.375 30.3074V33.3074ZM189.625 36.4324L188.503 39.2147C193.192 41.1055 196.67 43.8411 199.086 47.3755L201.562 45.6824L204.039 43.9892C200.872 39.357 196.391 35.9259 190.747 33.6501L189.625 36.4324ZM201.562 45.6824L199.098 47.3926C201.516 50.8773 202.812 55.2898 202.812 60.8074H205.812H208.812C208.812 54.325 207.276 48.6541 204.027 43.9721L201.562 45.6824ZM205.812 60.8074H202.812C202.812 65.7239 202.043 69.6153 200.654 72.6066L203.375 73.8699L206.096 75.1332C207.957 71.1244 208.812 66.3075 208.812 60.8074H205.812ZM203.375 73.8699L200.654 72.6066C199.22 75.696 197.239 78.2105 194.709 80.1984L196.562 82.5574L198.416 84.9163C201.719 82.3209 204.28 79.0438 206.096 75.1332L203.375 73.8699ZM196.562 82.5574L194.714 80.1949C192.103 82.238 189.019 83.9516 185.433 85.3159L186.5 88.1199L187.567 90.9238C191.647 89.3715 195.272 87.3768 198.411 84.9199L196.562 82.5574ZM186.5 88.1199L185.024 85.5082L177.836 89.5707L179.312 92.1824L180.789 94.7941L187.976 90.7316L186.5 88.1199ZM179.312 92.1824V89.1824H149.25V92.1824V95.1824H179.312V92.1824ZM149.25 92.1824L152.25 92.1602L152.125 75.2227L149.125 75.2449L146.125 75.267L146.25 92.2045L149.25 92.1824ZM149.125 75.2449V78.2449H171.375V75.2449V72.2449H149.125V75.2449ZM171.375 75.2449V78.2449C174.506 78.2449 177.352 77.6863 179.749 76.3786L178.312 73.7449L176.876 71.1112C175.607 71.8035 173.827 72.2449 171.375 72.2449V75.2449ZM178.312 73.7449L179.749 76.3786C182.109 75.0912 183.925 73.2286 185.121 70.8365L182.438 69.4949L179.754 68.1532C179.117 69.4278 178.182 70.3986 176.876 71.1112L178.312 73.7449ZM182.438 69.4949L185.109 70.8602C186.327 68.4773 186.875 65.7594 186.875 62.8074H183.875H180.875C180.875 65.022 180.465 66.7625 179.766 68.1296L182.438 69.4949ZM183.875 62.8074H186.875C186.875 59.8223 186.33 57.0812 185.109 54.6921L182.438 56.0574L179.766 57.4227C180.462 58.7836 180.875 60.5424 180.875 62.8074H183.875ZM182.438 56.0574L185.109 54.6921C183.869 52.2658 182.01 50.3835 179.599 49.0978L178.188 51.7449L176.776 54.3919C178.115 55.1063 179.09 56.099 179.766 57.4227L182.438 56.0574ZM178.188 51.7449L179.624 49.1112C177.238 47.8099 174.441 47.2449 171.375 47.2449V50.2449V53.2449C173.726 53.2449 175.47 53.6798 176.751 54.3786L178.188 51.7449ZM171.375 50.2449V47.2449H157.5V50.2449V53.2449H171.375V50.2449ZM157.5 50.2449H154.5V124.307H157.5H160.5V50.2449H157.5ZM157.5 124.307V121.307H135.562V124.307V127.307H157.5V124.307ZM135.562 124.307H138.562V33.3074H135.562H132.562V124.307H135.562ZM185.375 124.307L188.058 122.966L167.933 82.7157L165.25 84.0574L162.567 85.399L182.692 125.649L185.375 124.307ZM165.25 84.0574L165.266 87.0573L188.516 86.9323L188.5 83.9324L188.484 80.9324L165.234 81.0574L165.25 84.0574ZM188.5 83.9324L185.835 85.3094L206.21 124.747L208.875 123.37L211.54 121.993L191.165 82.5554L188.5 83.9324ZM208.875 123.37H205.875V124.307H208.875H211.875V123.37H208.875ZM208.875 124.307V121.307H185.375V124.307V127.307H208.875V124.307Z" fill="black" mask="url(#path-5-outside-3_1_90)"/>
</g>
<g filter="url(#filter4_d_1_90)">
<mask id="path-7-outside-4_1_90" maskUnits="userSpaceOnUse" x="194.647" y="27.9073" width="85.1466" height="101.937" fill="black">
<rect fill="white" x="194.647" y="27.9073" width="85.1466" height="101.937"/>
<path d="M228.271 123.889L208.127 122.574L209.35 105.743L229.37 107.049C233.528 107.321 237.106 106.552 240.105 104.743C243.146 102.937 245.544 100.108 247.298 96.256C249.097 92.3648 250.186 87.5088 250.566 81.6878L250.822 77.7587C251.107 73.3929 250.92 69.5393 250.261 66.1976C249.646 62.8171 248.579 59.9708 247.06 57.6586C245.543 55.3049 243.574 53.4854 241.153 52.2C238.773 50.9174 235.982 50.1717 232.781 49.9628L212.574 48.6447L213.676 31.7431L233.883 33.0612C240.037 33.4627 245.602 34.8904 250.577 37.3445C255.597 39.7598 259.851 43.0436 263.338 47.1961C266.869 51.3097 269.48 56.0939 271.17 61.5489C272.905 66.9649 273.562 72.8953 273.141 79.3399L272.893 83.1443C272.476 89.5474 271.054 95.3421 268.628 100.529C266.243 105.718 263.054 110.124 259.059 113.746C255.065 117.369 250.442 120.074 245.189 121.861C239.981 123.609 234.342 124.285 228.271 123.889ZM226.586 32.5852L220.663 123.392L198.772 121.964L204.695 31.1572L226.586 32.5852Z"/>
</mask>
<path d="M228.271 123.889L208.127 122.574L209.35 105.743L229.37 107.049C233.528 107.321 237.106 106.552 240.105 104.743C243.146 102.937 245.544 100.108 247.298 96.256C249.097 92.3648 250.186 87.5088 250.566 81.6878L250.822 77.7587C251.107 73.3929 250.92 69.5393 250.261 66.1976C249.646 62.8171 248.579 59.9708 247.06 57.6586C245.543 55.3049 243.574 53.4854 241.153 52.2C238.773 50.9174 235.982 50.1717 232.781 49.9628L212.574 48.6447L213.676 31.7431L233.883 33.0612C240.037 33.4627 245.602 34.8904 250.577 37.3445C255.597 39.7598 259.851 43.0436 263.338 47.1961C266.869 51.3097 269.48 56.0939 271.17 61.5489C272.905 66.9649 273.562 72.8953 273.141 79.3399L272.893 83.1443C272.476 89.5474 271.054 95.3421 268.628 100.529C266.243 105.718 263.054 110.124 259.059 113.746C255.065 117.369 250.442 120.074 245.189 121.861C239.981 123.609 234.342 124.285 228.271 123.889ZM226.586 32.5852L220.663 123.392L198.772 121.964L204.695 31.1572L226.586 32.5852Z" fill="white"/>
<path d="M208.127 122.574L205.135 122.357L204.916 125.371L207.931 125.568L208.127 122.574ZM209.35 105.743L209.545 102.75L206.574 102.556L206.358 105.526L209.35 105.743ZM240.105 104.743L238.573 102.164L238.565 102.169L238.556 102.174L240.105 104.743ZM247.298 96.256L244.575 94.9972L244.571 95.0049L244.568 95.0126L247.298 96.256ZM250.261 66.1976L247.309 66.7342L247.313 66.7561L247.318 66.778L250.261 66.1976ZM247.06 57.6586L244.538 59.2836L244.545 59.2949L244.553 59.3062L247.06 57.6586ZM241.153 52.2L239.73 54.8409L239.738 54.8454L239.746 54.8499L241.153 52.2ZM212.574 48.6447L209.58 48.4494L209.385 51.443L212.378 51.6383L212.574 48.6447ZM213.676 31.7431L213.871 28.7494L210.878 28.5542L210.683 31.5478L213.676 31.7431ZM250.577 37.3445L249.25 40.0351L249.263 40.0416L249.277 40.0479L250.577 37.3445ZM263.338 47.1961L261.041 49.1253L261.051 49.1378L261.062 49.1502L263.338 47.1961ZM271.17 61.5489L268.305 62.4367L268.309 62.4503L268.313 62.4638L271.17 61.5489ZM268.628 100.529L265.91 99.2574L265.906 99.2666L265.902 99.2759L268.628 100.529ZM245.189 121.861L246.144 124.705L246.156 124.701L245.189 121.861ZM226.586 32.5852L229.58 32.7805L229.775 29.7869L226.782 29.5916L226.586 32.5852ZM220.663 123.392L220.467 126.386L223.461 126.581L223.656 123.588L220.663 123.392ZM198.772 121.964L195.778 121.769L195.583 124.763L198.576 124.958L198.772 121.964ZM204.695 31.1572L204.891 28.1636L201.897 27.9683L201.702 30.9619L204.695 31.1572ZM228.271 123.889L228.467 120.895L208.322 119.581L208.127 122.574L207.931 125.568L228.076 126.882L228.271 123.889ZM208.127 122.574L211.119 122.792L212.342 105.961L209.35 105.743L206.358 105.526L205.135 122.357L208.127 122.574ZM209.35 105.743L209.155 108.737L229.175 110.043L229.37 107.049L229.565 104.056L209.545 102.75L209.35 105.743ZM229.37 107.049L229.175 110.043C233.825 110.346 238.038 109.493 241.655 107.312L240.105 104.743L238.556 102.174C236.175 103.61 233.23 104.295 229.565 104.056L229.37 107.049ZM240.105 104.743L241.637 107.323C245.301 105.147 248.071 101.797 250.028 97.4994L247.298 96.256L244.568 95.0126C243.016 98.4197 240.991 100.728 238.573 102.164L240.105 104.743ZM247.298 96.256L250.021 97.5148C252.02 93.1919 253.164 87.948 253.559 81.8831L250.566 81.6878L247.572 81.4925C247.208 87.0696 246.174 91.5378 244.575 94.9972L247.298 96.256ZM250.566 81.6878L253.559 81.8831L253.816 77.954L250.822 77.7587L247.828 77.5634L247.572 81.4925L250.566 81.6878ZM250.822 77.7587L253.816 77.954C254.113 73.3982 253.925 69.2746 253.204 65.6173L250.261 66.1976L247.318 66.778C247.914 69.804 248.101 73.3877 247.828 77.5634L250.822 77.7587ZM250.261 66.1976L253.213 65.661C252.543 61.977 251.354 58.7308 249.567 56.0111L247.06 57.6586L244.553 59.3062C245.804 61.2108 246.75 63.6572 247.309 66.7342L250.261 66.1976ZM247.06 57.6586L249.582 56.0337C247.793 53.2582 245.444 51.0815 242.559 49.5502L241.153 52.2L239.746 54.8499C241.704 55.8893 243.293 57.3516 244.538 59.2836L247.06 57.6586ZM241.153 52.2L242.576 49.5592C239.753 48.0375 236.528 47.2009 232.976 46.9692L232.781 49.9628L232.585 52.9565C235.436 53.1424 237.793 53.7973 239.73 54.8409L241.153 52.2ZM232.781 49.9628L232.976 46.9692L212.769 45.651L212.574 48.6447L212.378 51.6383L232.585 52.9565L232.781 49.9628ZM212.574 48.6447L215.567 48.8399L216.67 31.9384L213.676 31.7431L210.683 31.5478L209.58 48.4494L212.574 48.6447ZM213.676 31.7431L213.481 34.7367L233.688 36.0549L233.883 33.0612L234.079 30.0676L213.871 28.7494L213.676 31.7431ZM233.883 33.0612L233.688 36.0549C239.492 36.4335 244.666 37.7739 249.25 40.0351L250.577 37.3445L251.904 34.654C246.537 32.007 240.582 30.4918 234.079 30.0676L233.883 33.0612ZM250.577 37.3445L249.277 40.0479C253.924 42.2839 257.835 45.3077 261.041 49.1253L263.338 47.1961L265.635 45.2668C261.867 40.7795 257.271 37.2356 251.878 34.6411L250.577 37.3445ZM263.338 47.1961L261.062 49.1502C264.312 52.9359 266.729 57.3525 268.305 62.4367L271.17 61.5489L274.036 60.661C272.231 54.8354 269.427 49.6834 265.614 45.242L263.338 47.1961ZM271.17 61.5489L268.313 62.4638C269.919 67.4764 270.547 73.0248 270.148 79.1446L273.141 79.3399L276.135 79.5352C276.577 72.7657 275.891 66.4534 274.027 60.6339L271.17 61.5489ZM273.141 79.3399L270.148 79.1446L269.9 82.949L272.893 83.1443L275.887 83.3396L276.135 79.5352L273.141 79.3399ZM272.893 83.1443L269.9 82.949C269.503 89.0242 268.16 94.4477 265.91 99.2574L268.628 100.529L271.345 101.8C273.947 96.2365 275.448 90.0706 275.887 83.3396L272.893 83.1443ZM268.628 100.529L265.902 99.2759C263.676 104.119 260.721 108.189 257.044 111.524L259.059 113.746L261.075 115.968C265.386 112.058 268.81 107.316 271.354 101.781L268.628 100.529ZM259.059 113.746L257.044 111.524C253.362 114.863 249.099 117.362 244.223 119.02L245.189 121.861L246.156 124.701C251.785 122.786 256.768 119.875 261.075 115.968L259.059 113.746ZM245.189 121.861L244.235 119.016C239.434 120.628 234.19 121.268 228.467 120.895L228.271 123.889L228.076 126.882C234.494 127.301 240.528 126.589 246.144 124.705L245.189 121.861ZM226.586 32.5852L223.593 32.39L217.669 123.197L220.663 123.392L223.656 123.588L229.58 32.7805L226.586 32.5852ZM220.663 123.392L220.858 120.399L198.967 118.971L198.772 121.964L198.576 124.958L220.467 126.386L220.663 123.392ZM198.772 121.964L201.765 122.16L207.689 31.3525L204.695 31.1572L201.702 30.9619L195.778 121.769L198.772 121.964ZM204.695 31.1572L204.5 34.1509L226.391 35.5789L226.586 32.5852L226.782 29.5916L204.891 28.1636L204.695 31.1572Z" fill="black" mask="url(#path-7-outside-4_1_90)"/>
</g>
<g filter="url(#filter5_d_1_90)">
<mask id="path-9-outside-5_1_90" maskUnits="userSpaceOnUse" x="24.625" y="114.307" width="234" height="48" fill="black">
<rect fill="white" x="24.625" y="114.307" width="234" height="48"/>
<path d="M34.3047 121.182H41.0078L48.625 144.925L56.2422 121.182H62.9453L51.3438 155.307H45.9062L34.3047 121.182ZM30.2266 121.182H37.1641L38.4531 147.339V155.307H30.2266V121.182ZM60.0859 121.182H67.0469V155.307H58.7969V147.339L60.0859 121.182ZM87.2031 128.354L78.8828 155.307H70.0469L82.5859 121.182H88.1875L87.2031 128.354ZM94.0938 155.307L85.75 128.354L84.6719 121.182H90.3438L102.953 155.307H94.0938ZM93.7656 142.581V148.932H76.2578V142.581H93.7656ZM116.547 155.307H108.977L109.023 148.979H116.547C118.109 148.979 119.43 148.604 120.508 147.854C121.602 147.104 122.43 145.987 122.992 144.503C123.57 143.003 123.859 141.159 123.859 138.971V137.495C123.859 135.854 123.695 134.417 123.367 133.182C123.055 131.932 122.586 130.893 121.961 130.065C121.336 129.221 120.555 128.589 119.617 128.167C118.695 127.745 117.633 127.534 116.43 127.534H108.836V121.182H116.43C118.742 121.182 120.859 121.581 122.781 122.378C124.719 123.159 126.391 124.284 127.797 125.753C129.219 127.206 130.312 128.932 131.078 130.932C131.859 132.917 132.25 135.12 132.25 137.542V138.971C132.25 141.378 131.859 143.581 131.078 145.581C130.312 147.581 129.227 149.307 127.82 150.76C126.414 152.214 124.75 153.339 122.828 154.135C120.922 154.917 118.828 155.307 116.547 155.307ZM113.688 121.182V155.307H105.461V121.182H113.688ZM165.039 121.182V155.307H156.836L144.766 134.073V155.307H136.539V121.182H144.766L156.836 142.417V121.182H165.039ZM193.727 148.979V155.307H175.539V148.979H193.727ZM178.469 121.182V155.307H170.242V121.182H178.469ZM191.383 134.729V140.846H175.539V134.729H191.383ZM193.797 121.182V127.534H175.539V121.182H193.797ZM214.68 146.237C214.68 145.706 214.602 145.229 214.445 144.807C214.289 144.37 214 143.964 213.578 143.589C213.156 143.214 212.547 142.839 211.75 142.464C210.969 142.073 209.938 141.667 208.656 141.245C207.156 140.745 205.711 140.182 204.32 139.557C202.93 138.917 201.688 138.175 200.594 137.331C199.5 136.471 198.633 135.471 197.992 134.331C197.352 133.175 197.031 131.831 197.031 130.3C197.031 128.831 197.359 127.51 198.016 126.339C198.672 125.151 199.586 124.143 200.758 123.315C201.945 122.471 203.336 121.831 204.93 121.393C206.523 120.94 208.266 120.714 210.156 120.714C212.656 120.714 214.859 121.151 216.766 122.026C218.688 122.885 220.188 124.112 221.266 125.706C222.359 127.284 222.906 129.151 222.906 131.307H214.727C214.727 130.448 214.547 129.69 214.188 129.034C213.844 128.378 213.32 127.862 212.617 127.487C211.914 127.112 211.031 126.925 209.969 126.925C208.938 126.925 208.07 127.081 207.367 127.393C206.664 127.706 206.133 128.128 205.773 128.659C205.414 129.175 205.234 129.745 205.234 130.37C205.234 130.885 205.375 131.354 205.656 131.776C205.953 132.182 206.367 132.565 206.898 132.925C207.445 133.284 208.102 133.628 208.867 133.956C209.648 134.284 210.523 134.604 211.492 134.917C213.305 135.495 214.914 136.143 216.32 136.862C217.742 137.565 218.938 138.37 219.906 139.276C220.891 140.167 221.633 141.182 222.133 142.323C222.648 143.464 222.906 144.753 222.906 146.19C222.906 147.721 222.609 149.081 222.016 150.268C221.422 151.456 220.57 152.464 219.461 153.292C218.352 154.104 217.023 154.721 215.477 155.143C213.93 155.565 212.203 155.776 210.297 155.776C208.547 155.776 206.82 155.557 205.117 155.12C203.43 154.667 201.898 153.979 200.523 153.057C199.148 152.12 198.047 150.925 197.219 149.471C196.406 148.003 196 146.26 196 144.245H204.25C204.25 145.245 204.383 146.089 204.648 146.776C204.914 147.464 205.305 148.018 205.82 148.44C206.336 148.846 206.969 149.143 207.719 149.331C208.469 149.503 209.328 149.589 210.297 149.589C211.344 149.589 212.188 149.44 212.828 149.143C213.469 148.831 213.938 148.425 214.234 147.925C214.531 147.409 214.68 146.846 214.68 146.237ZM244.727 146.237C244.727 145.706 244.648 145.229 244.492 144.807C244.336 144.37 244.047 143.964 243.625 143.589C243.203 143.214 242.594 142.839 241.797 142.464C241.016 142.073 239.984 141.667 238.703 141.245C237.203 140.745 235.758 140.182 234.367 139.557C232.977 138.917 231.734 138.175 230.641 137.331C229.547 136.471 228.68 135.471 228.039 134.331C227.398 133.175 227.078 131.831 227.078 130.3C227.078 128.831 227.406 127.51 228.062 126.339C228.719 125.151 229.633 124.143 230.805 123.315C231.992 122.471 233.383 121.831 234.977 121.393C236.57 120.94 238.312 120.714 240.203 120.714C242.703 120.714 244.906 121.151 246.812 122.026C248.734 122.885 250.234 124.112 251.312 125.706C252.406 127.284 252.953 129.151 252.953 131.307H244.773C244.773 130.448 244.594 129.69 244.234 129.034C243.891 128.378 243.367 127.862 242.664 127.487C241.961 127.112 241.078 126.925 240.016 126.925C238.984 126.925 238.117 127.081 237.414 127.393C236.711 127.706 236.18 128.128 235.82 128.659C235.461 129.175 235.281 129.745 235.281 130.37C235.281 130.885 235.422 131.354 235.703 131.776C236 132.182 236.414 132.565 236.945 132.925C237.492 133.284 238.148 133.628 238.914 133.956C239.695 134.284 240.57 134.604 241.539 134.917C243.352 135.495 244.961 136.143 246.367 136.862C247.789 137.565 248.984 138.37 249.953 139.276C250.938 140.167 251.68 141.182 252.18 142.323C252.695 143.464 252.953 144.753 252.953 146.19C252.953 147.721 252.656 149.081 252.062 150.268C251.469 151.456 250.617 152.464 249.508 153.292C248.398 154.104 247.07 154.721 245.523 155.143C243.977 155.565 242.25 155.776 240.344 155.776C238.594 155.776 236.867 155.557 235.164 155.12C233.477 154.667 231.945 153.979 230.57 153.057C229.195 152.12 228.094 150.925 227.266 149.471C226.453 148.003 226.047 146.26 226.047 144.245H234.297C234.297 145.245 234.43 146.089 234.695 146.776C234.961 147.464 235.352 148.018 235.867 148.44C236.383 148.846 237.016 149.143 237.766 149.331C238.516 149.503 239.375 149.589 240.344 149.589C241.391 149.589 242.234 149.44 242.875 149.143C243.516 148.831 243.984 148.425 244.281 147.925C244.578 147.409 244.727 146.846 244.727 146.237Z"/>
</mask>
<path d="M34.3047 121.182H41.0078L48.625 144.925L56.2422 121.182H62.9453L51.3438 155.307H45.9062L34.3047 121.182ZM30.2266 121.182H37.1641L38.4531 147.339V155.307H30.2266V121.182ZM60.0859 121.182H67.0469V155.307H58.7969V147.339L60.0859 121.182ZM87.2031 128.354L78.8828 155.307H70.0469L82.5859 121.182H88.1875L87.2031 128.354ZM94.0938 155.307L85.75 128.354L84.6719 121.182H90.3438L102.953 155.307H94.0938ZM93.7656 142.581V148.932H76.2578V142.581H93.7656ZM116.547 155.307H108.977L109.023 148.979H116.547C118.109 148.979 119.43 148.604 120.508 147.854C121.602 147.104 122.43 145.987 122.992 144.503C123.57 143.003 123.859 141.159 123.859 138.971V137.495C123.859 135.854 123.695 134.417 123.367 133.182C123.055 131.932 122.586 130.893 121.961 130.065C121.336 129.221 120.555 128.589 119.617 128.167C118.695 127.745 117.633 127.534 116.43 127.534H108.836V121.182H116.43C118.742 121.182 120.859 121.581 122.781 122.378C124.719 123.159 126.391 124.284 127.797 125.753C129.219 127.206 130.312 128.932 131.078 130.932C131.859 132.917 132.25 135.12 132.25 137.542V138.971C132.25 141.378 131.859 143.581 131.078 145.581C130.312 147.581 129.227 149.307 127.82 150.76C126.414 152.214 124.75 153.339 122.828 154.135C120.922 154.917 118.828 155.307 116.547 155.307ZM113.688 121.182V155.307H105.461V121.182H113.688ZM165.039 121.182V155.307H156.836L144.766 134.073V155.307H136.539V121.182H144.766L156.836 142.417V121.182H165.039ZM193.727 148.979V155.307H175.539V148.979H193.727ZM178.469 121.182V155.307H170.242V121.182H178.469ZM191.383 134.729V140.846H175.539V134.729H191.383ZM193.797 121.182V127.534H175.539V121.182H193.797ZM214.68 146.237C214.68 145.706 214.602 145.229 214.445 144.807C214.289 144.37 214 143.964 213.578 143.589C213.156 143.214 212.547 142.839 211.75 142.464C210.969 142.073 209.938 141.667 208.656 141.245C207.156 140.745 205.711 140.182 204.32 139.557C202.93 138.917 201.688 138.175 200.594 137.331C199.5 136.471 198.633 135.471 197.992 134.331C197.352 133.175 197.031 131.831 197.031 130.3C197.031 128.831 197.359 127.51 198.016 126.339C198.672 125.151 199.586 124.143 200.758 123.315C201.945 122.471 203.336 121.831 204.93 121.393C206.523 120.94 208.266 120.714 210.156 120.714C212.656 120.714 214.859 121.151 216.766 122.026C218.688 122.885 220.188 124.112 221.266 125.706C222.359 127.284 222.906 129.151 222.906 131.307H214.727C214.727 130.448 214.547 129.69 214.188 129.034C213.844 128.378 213.32 127.862 212.617 127.487C211.914 127.112 211.031 126.925 209.969 126.925C208.938 126.925 208.07 127.081 207.367 127.393C206.664 127.706 206.133 128.128 205.773 128.659C205.414 129.175 205.234 129.745 205.234 130.37C205.234 130.885 205.375 131.354 205.656 131.776C205.953 132.182 206.367 132.565 206.898 132.925C207.445 133.284 208.102 133.628 208.867 133.956C209.648 134.284 210.523 134.604 211.492 134.917C213.305 135.495 214.914 136.143 216.32 136.862C217.742 137.565 218.938 138.37 219.906 139.276C220.891 140.167 221.633 141.182 222.133 142.323C222.648 143.464 222.906 144.753 222.906 146.19C222.906 147.721 222.609 149.081 222.016 150.268C221.422 151.456 220.57 152.464 219.461 153.292C218.352 154.104 217.023 154.721 215.477 155.143C213.93 155.565 212.203 155.776 210.297 155.776C208.547 155.776 206.82 155.557 205.117 155.12C203.43 154.667 201.898 153.979 200.523 153.057C199.148 152.12 198.047 150.925 197.219 149.471C196.406 148.003 196 146.26 196 144.245H204.25C204.25 145.245 204.383 146.089 204.648 146.776C204.914 147.464 205.305 148.018 205.82 148.44C206.336 148.846 206.969 149.143 207.719 149.331C208.469 149.503 209.328 149.589 210.297 149.589C211.344 149.589 212.188 149.44 212.828 149.143C213.469 148.831 213.938 148.425 214.234 147.925C214.531 147.409 214.68 146.846 214.68 146.237ZM244.727 146.237C244.727 145.706 244.648 145.229 244.492 144.807C244.336 144.37 244.047 143.964 243.625 143.589C243.203 143.214 242.594 142.839 241.797 142.464C241.016 142.073 239.984 141.667 238.703 141.245C237.203 140.745 235.758 140.182 234.367 139.557C232.977 138.917 231.734 138.175 230.641 137.331C229.547 136.471 228.68 135.471 228.039 134.331C227.398 133.175 227.078 131.831 227.078 130.3C227.078 128.831 227.406 127.51 228.062 126.339C228.719 125.151 229.633 124.143 230.805 123.315C231.992 122.471 233.383 121.831 234.977 121.393C236.57 120.94 238.312 120.714 240.203 120.714C242.703 120.714 244.906 121.151 246.812 122.026C248.734 122.885 250.234 124.112 251.312 125.706C252.406 127.284 252.953 129.151 252.953 131.307H244.773C244.773 130.448 244.594 129.69 244.234 129.034C243.891 128.378 243.367 127.862 242.664 127.487C241.961 127.112 241.078 126.925 240.016 126.925C238.984 126.925 238.117 127.081 237.414 127.393C236.711 127.706 236.18 128.128 235.82 128.659C235.461 129.175 235.281 129.745 235.281 130.37C235.281 130.885 235.422 131.354 235.703 131.776C236 132.182 236.414 132.565 236.945 132.925C237.492 133.284 238.148 133.628 238.914 133.956C239.695 134.284 240.57 134.604 241.539 134.917C243.352 135.495 244.961 136.143 246.367 136.862C247.789 137.565 248.984 138.37 249.953 139.276C250.938 140.167 251.68 141.182 252.18 142.323C252.695 143.464 252.953 144.753 252.953 146.19C252.953 147.721 252.656 149.081 252.062 150.268C251.469 151.456 250.617 152.464 249.508 153.292C248.398 154.104 247.07 154.721 245.523 155.143C243.977 155.565 242.25 155.776 240.344 155.776C238.594 155.776 236.867 155.557 235.164 155.12C233.477 154.667 231.945 153.979 230.57 153.057C229.195 152.12 228.094 150.925 227.266 149.471C226.453 148.003 226.047 146.26 226.047 144.245H234.297C234.297 145.245 234.43 146.089 234.695 146.776C234.961 147.464 235.352 148.018 235.867 148.44C236.383 148.846 237.016 149.143 237.766 149.331C238.516 149.503 239.375 149.589 240.344 149.589C241.391 149.589 242.234 149.44 242.875 149.143C243.516 148.831 243.984 148.425 244.281 147.925C244.578 147.409 244.727 146.846 244.727 146.237Z" fill="white"/>
<path d="M34.3047 121.182V116.182H27.3238L29.5708 122.792L34.3047 121.182ZM41.0078 121.182L45.7688 119.655L44.6547 116.182H41.0078V121.182ZM48.625 144.925L43.864 146.452L48.625 161.292L53.386 146.452L48.625 144.925ZM56.2422 121.182V116.182H52.5953L51.4812 119.655L56.2422 121.182ZM62.9453 121.182L67.6792 122.792L69.9262 116.182H62.9453V121.182ZM51.3438 155.307V160.307H54.9249L56.0777 156.917L51.3438 155.307ZM45.9062 155.307L41.1723 156.917L42.3251 160.307H45.9062V155.307ZM30.2266 121.182V116.182H25.2266V121.182H30.2266ZM37.1641 121.182L42.158 120.936L41.9237 116.182H37.1641V121.182ZM38.4531 147.339H43.4531V147.215L43.4471 147.093L38.4531 147.339ZM38.4531 155.307V160.307H43.4531V155.307H38.4531ZM30.2266 155.307H25.2266V160.307H30.2266V155.307ZM60.0859 121.182V116.182H55.3263L55.092 120.936L60.0859 121.182ZM67.0469 121.182H72.0469V116.182H67.0469V121.182ZM67.0469 155.307V160.307H72.0469V155.307H67.0469ZM58.7969 155.307H53.7969V160.307H58.7969V155.307ZM58.7969 147.339L53.8029 147.093L53.7969 147.215V147.339H58.7969ZM34.3047 121.182V126.182H41.0078V121.182V116.182H34.3047V121.182ZM41.0078 121.182L36.2468 122.71L43.864 146.452L48.625 144.925L53.386 143.397L45.7688 119.655L41.0078 121.182ZM48.625 144.925L53.386 146.452L61.0032 122.71L56.2422 121.182L51.4812 119.655L43.864 143.397L48.625 144.925ZM56.2422 121.182V126.182H62.9453V121.182V116.182H56.2422V121.182ZM62.9453 121.182L58.2114 119.573L46.6098 153.698L51.3438 155.307L56.0777 156.917L67.6792 122.792L62.9453 121.182ZM51.3438 155.307V150.307H45.9062V155.307V160.307H51.3438V155.307ZM45.9062 155.307L50.6402 153.698L39.0386 119.573L34.3047 121.182L29.5708 122.792L41.1723 156.917L45.9062 155.307ZM30.2266 121.182V126.182H37.1641V121.182V116.182H30.2266V121.182ZM37.1641 121.182L32.1701 121.428L33.4592 147.585L38.4531 147.339L43.4471 147.093L42.158 120.936L37.1641 121.182ZM38.4531 147.339H33.4531V155.307H38.4531H43.4531V147.339H38.4531ZM38.4531 155.307V150.307H30.2266V155.307V160.307H38.4531V155.307ZM30.2266 155.307H35.2266V121.182H30.2266H25.2266V155.307H30.2266ZM60.0859 121.182V126.182H67.0469V121.182V116.182H60.0859V121.182ZM67.0469 121.182H62.0469V155.307H67.0469H72.0469V121.182H67.0469ZM67.0469 155.307V150.307H58.7969V155.307V160.307H67.0469V155.307ZM58.7969 155.307H63.7969V147.339H58.7969H53.7969V155.307H58.7969ZM58.7969 147.339L63.7908 147.585L65.0799 121.428L60.0859 121.182L55.092 120.936L53.8029 147.093L58.7969 147.339ZM87.2031 128.354L91.9807 129.829L92.1011 129.439L92.1567 129.034L87.2031 128.354ZM78.8828 155.307V160.307H82.5721L83.6604 156.782L78.8828 155.307ZM70.0469 155.307L65.3537 153.583L62.8828 160.307H70.0469V155.307ZM82.5859 121.182V116.182H79.0963L77.8927 119.458L82.5859 121.182ZM88.1875 121.182L93.1411 121.862L93.9207 116.182H88.1875V121.182ZM94.0938 155.307L89.3174 156.786L90.4075 160.307H94.0938V155.307ZM85.75 128.354L80.8056 129.098L80.8618 129.472L80.9736 129.833L85.75 128.354ZM84.6719 121.182V116.182H78.8641L79.7274 121.926L84.6719 121.182ZM90.3438 121.182L95.0338 119.449L93.8266 116.182H90.3438V121.182ZM102.953 155.307V160.307H110.131L107.643 153.574L102.953 155.307ZM93.7656 142.581H98.7656V137.581H93.7656V142.581ZM93.7656 148.932V153.932H98.7656V148.932H93.7656ZM76.2578 148.932H71.2578V153.932H76.2578V148.932ZM76.2578 142.581V137.581H71.2578V142.581H76.2578ZM87.2031 128.354L82.4256 126.879L74.1053 153.833L78.8828 155.307L83.6604 156.782L91.9807 129.829L87.2031 128.354ZM78.8828 155.307V150.307H70.0469V155.307V160.307H78.8828V155.307ZM70.0469 155.307L74.7401 157.032L87.2791 122.907L82.5859 121.182L77.8927 119.458L65.3537 153.583L70.0469 155.307ZM82.5859 121.182V126.182H88.1875V121.182V116.182H82.5859V121.182ZM88.1875 121.182L83.2339 120.502L82.2496 127.674L87.2031 128.354L92.1567 129.034L93.1411 121.862L88.1875 121.182ZM94.0938 155.307L98.8701 153.829L90.5264 126.876L85.75 128.354L80.9736 129.833L89.3174 156.786L94.0938 155.307ZM85.75 128.354L90.6944 127.611L89.6163 120.439L84.6719 121.182L79.7274 121.926L80.8056 129.098L85.75 128.354ZM84.6719 121.182V126.182H90.3438V121.182V116.182H84.6719V121.182ZM90.3438 121.182L85.6537 122.915L98.2631 157.04L102.953 155.307L107.643 153.574L95.0338 119.449L90.3438 121.182ZM102.953 155.307V150.307H94.0938V155.307V160.307H102.953V155.307ZM93.7656 142.581H88.7656V148.932H93.7656H98.7656V142.581H93.7656ZM93.7656 148.932V143.932H76.2578V148.932V153.932H93.7656V148.932ZM76.2578 148.932H81.2578V142.581H76.2578H71.2578V148.932H76.2578ZM76.2578 142.581V147.581H93.7656V142.581V137.581H76.2578V142.581ZM108.977 155.307L103.977 155.27L103.939 160.307H108.977V155.307ZM109.023 148.979V143.979H104.06L104.024 148.942L109.023 148.979ZM120.508 147.854L117.68 143.731L117.666 143.74L117.652 143.75L120.508 147.854ZM122.992 144.503L118.327 142.705L118.322 142.718L118.317 142.731L122.992 144.503ZM123.367 133.182L118.516 134.395L118.525 134.431L118.535 134.467L123.367 133.182ZM121.961 130.065L117.943 133.041L117.956 133.059L117.97 133.077L121.961 130.065ZM119.617 128.167L117.537 132.713L117.551 132.72L117.565 132.726L119.617 128.167ZM108.836 127.534H103.836V132.534H108.836V127.534ZM108.836 121.182V116.182H103.836V121.182H108.836ZM122.781 122.378L120.866 126.996L120.889 127.006L120.911 127.015L122.781 122.378ZM127.797 125.753L124.185 129.211L124.204 129.23L124.223 129.25L127.797 125.753ZM131.078 130.932L126.409 132.72L126.417 132.742L126.426 132.764L131.078 130.932ZM131.078 145.581L126.421 143.762L126.415 143.777L126.409 143.793L131.078 145.581ZM122.828 154.135L124.724 158.762L124.734 158.758L124.743 158.754L122.828 154.135ZM113.688 121.182H118.688V116.182H113.688V121.182ZM113.688 155.307V160.307H118.688V155.307H113.688ZM105.461 155.307H100.461V160.307H105.461V155.307ZM105.461 121.182V116.182H100.461V121.182H105.461ZM116.547 155.307V150.307H108.977V155.307V160.307H116.547V155.307ZM108.977 155.307L113.976 155.344L114.023 149.016L109.023 148.979L104.024 148.942L103.977 155.27L108.977 155.307ZM109.023 148.979V153.979H116.547V148.979V143.979H109.023V148.979ZM116.547 148.979V153.979C118.932 153.979 121.298 153.395 123.363 151.959L120.508 147.854L117.652 143.75C117.561 143.813 117.286 143.979 116.547 143.979V148.979ZM120.508 147.854L123.335 151.978C125.425 150.545 126.816 148.521 127.668 146.274L122.992 144.503L118.317 142.731C118.043 143.453 117.778 143.664 117.68 143.731L120.508 147.854ZM122.992 144.503L127.658 146.301C128.521 144.061 128.859 141.566 128.859 138.971H123.859H118.859C118.859 140.752 118.62 141.944 118.327 142.705L122.992 144.503ZM123.859 138.971H128.859V137.495H123.859H118.859V138.971H123.859ZM123.859 137.495H128.859C128.859 135.537 128.665 133.65 128.199 131.898L123.367 133.182L118.535 134.467C118.725 135.183 118.859 136.172 118.859 137.495H123.859ZM123.367 133.182L128.218 131.97C127.781 130.221 127.067 128.53 125.952 127.053L121.961 130.065L117.97 133.077C118.105 133.257 118.329 133.644 118.516 134.395L123.367 133.182ZM121.961 130.065L125.979 127.089C124.856 125.573 123.404 124.388 121.669 123.607L119.617 128.167L117.565 132.726C117.706 132.789 117.816 132.87 117.943 133.041L121.961 130.065ZM119.617 128.167L121.698 123.62C120.012 122.849 118.218 122.534 116.43 122.534V127.534V132.534C117.047 132.534 117.378 132.641 117.537 132.713L119.617 128.167ZM116.43 127.534V122.534H108.836V127.534V132.534H116.43V127.534ZM108.836 127.534H113.836V121.182H108.836H103.836V127.534H108.836ZM108.836 121.182V126.182H116.43V121.182V116.182H108.836V121.182ZM116.43 121.182V126.182C118.158 126.182 119.616 126.478 120.866 126.996L122.781 122.378L124.696 117.759C122.103 116.684 119.326 116.182 116.43 116.182V121.182ZM122.781 122.378L120.911 127.015C122.21 127.538 123.283 128.268 124.185 129.211L127.797 125.753L131.408 122.295C129.498 120.3 127.228 118.779 124.651 117.74L122.781 122.378ZM127.797 125.753L124.223 129.25C125.141 130.188 125.874 131.324 126.409 132.72L131.078 130.932L135.748 129.145C134.751 126.541 133.296 124.224 131.371 122.256L127.797 125.753ZM131.078 130.932L126.426 132.764C126.948 134.091 127.25 135.662 127.25 137.542H132.25H137.25C137.25 134.577 136.77 131.742 135.731 129.101L131.078 130.932ZM132.25 137.542H127.25V138.971H132.25H137.25V137.542H132.25ZM132.25 138.971H127.25C127.25 140.83 126.95 142.407 126.421 143.762L131.078 145.581L135.735 147.4C136.769 144.754 137.25 141.925 137.25 138.971H132.25ZM131.078 145.581L126.409 143.793C125.87 145.201 125.137 146.343 124.227 147.283L127.82 150.76L131.413 154.238C133.316 152.271 134.755 149.961 135.748 147.368L131.078 145.581ZM127.82 150.76L124.227 147.283C123.31 148.231 122.222 148.974 120.913 149.517L122.828 154.135L124.743 158.754C127.278 157.703 129.518 156.196 131.413 154.238L127.82 150.76ZM122.828 154.135L120.932 149.509C119.689 150.018 118.248 150.307 116.547 150.307V155.307V160.307C119.409 160.307 122.155 159.815 124.724 158.762L122.828 154.135ZM113.688 121.182H108.688V155.307H113.688H118.688V121.182H113.688ZM113.688 155.307V150.307H105.461V155.307V160.307H113.688V155.307ZM105.461 155.307H110.461V121.182H105.461H100.461V155.307H105.461ZM105.461 121.182V126.182H113.688V121.182V116.182H105.461V121.182ZM165.039 121.182H170.039V116.182H165.039V121.182ZM165.039 155.307V160.307H170.039V155.307H165.039ZM156.836 155.307L152.489 157.778L153.927 160.307H156.836V155.307ZM144.766 134.073L149.112 131.602L139.766 115.159V134.073H144.766ZM144.766 155.307V160.307H149.766V155.307H144.766ZM136.539 155.307H131.539V160.307H136.539V155.307ZM136.539 121.182V116.182H131.539V121.182H136.539ZM144.766 121.182L149.112 118.712L147.675 116.182H144.766V121.182ZM156.836 142.417L152.489 144.888L161.836 161.331V142.417H156.836ZM156.836 121.182V116.182H151.836V121.182H156.836ZM165.039 121.182H160.039V155.307H165.039H170.039V121.182H165.039ZM165.039 155.307V150.307H156.836V155.307V160.307H165.039V155.307ZM156.836 155.307L161.183 152.837L149.112 131.602L144.766 134.073L140.419 136.544L152.489 157.778L156.836 155.307ZM144.766 134.073H139.766V155.307H144.766H149.766V134.073H144.766ZM144.766 155.307V150.307H136.539V155.307V160.307H144.766V155.307ZM136.539 155.307H141.539V121.182H136.539H131.539V155.307H136.539ZM136.539 121.182V126.182H144.766V121.182V116.182H136.539V121.182ZM144.766 121.182L140.419 123.653L152.489 144.888L156.836 142.417L161.183 139.946L149.112 118.712L144.766 121.182ZM156.836 142.417H161.836V121.182H156.836H151.836V142.417H156.836ZM156.836 121.182V126.182H165.039V121.182V116.182H156.836V121.182ZM193.727 148.979H198.727V143.979H193.727V148.979ZM193.727 155.307V160.307H198.727V155.307H193.727ZM175.539 155.307H170.539V160.307H175.539V155.307ZM175.539 148.979V143.979H170.539V148.979H175.539ZM178.469 121.182H183.469V116.182H178.469V121.182ZM178.469 155.307V160.307H183.469V155.307H178.469ZM170.242 155.307H165.242V160.307H170.242V155.307ZM170.242 121.182V116.182H165.242V121.182H170.242ZM191.383 134.729H196.383V129.729H191.383V134.729ZM191.383 140.846V145.846H196.383V140.846H191.383ZM175.539 140.846H170.539V145.846H175.539V140.846ZM175.539 134.729V129.729H170.539V134.729H175.539ZM193.797 121.182H198.797V116.182H193.797V121.182ZM193.797 127.534V132.534H198.797V127.534H193.797ZM175.539 127.534H170.539V132.534H175.539V127.534ZM175.539 121.182V116.182H170.539V121.182H175.539ZM193.727 148.979H188.727V155.307H193.727H198.727V148.979H193.727ZM193.727 155.307V150.307H175.539V155.307V160.307H193.727V155.307ZM175.539 155.307H180.539V148.979H175.539H170.539V155.307H175.539ZM175.539 148.979V153.979H193.727V148.979V143.979H175.539V148.979ZM178.469 121.182H173.469V155.307H178.469H183.469V121.182H178.469ZM178.469 155.307V150.307H170.242V155.307V160.307H178.469V155.307ZM170.242 155.307H175.242V121.182H170.242H165.242V155.307H170.242ZM170.242 121.182V126.182H178.469V121.182V116.182H170.242V121.182ZM191.383 134.729H186.383V140.846H191.383H196.383V134.729H191.383ZM191.383 140.846V135.846H175.539V140.846V145.846H191.383V140.846ZM175.539 140.846H180.539V134.729H175.539H170.539V140.846H175.539ZM175.539 134.729V139.729H191.383V134.729V129.729H175.539V134.729ZM193.797 121.182H188.797V127.534H193.797H198.797V121.182H193.797ZM193.797 127.534V122.534H175.539V127.534V132.534H193.797V127.534ZM175.539 127.534H180.539V121.182H175.539H170.539V127.534H175.539ZM175.539 121.182V126.182H193.797V121.182V116.182H175.539V121.182ZM214.445 144.807L209.737 146.489L209.746 146.517L209.757 146.544L214.445 144.807ZM211.75 142.464L209.514 146.936L209.567 146.962L209.621 146.988L211.75 142.464ZM208.656 141.245L207.075 145.988L207.084 145.991L207.092 145.994L208.656 141.245ZM204.32 139.557L202.228 144.099L202.249 144.108L202.271 144.118L204.32 139.557ZM200.594 137.331L197.505 141.262L197.522 141.276L197.54 141.29L200.594 137.331ZM197.992 134.331L193.619 136.754L193.626 136.767L193.633 136.779L197.992 134.331ZM198.016 126.339L202.378 128.782L202.385 128.769L202.392 128.757L198.016 126.339ZM200.758 123.315L203.643 127.399L203.654 127.391L200.758 123.315ZM204.93 121.393L206.253 126.215L206.275 126.209L206.297 126.203L204.93 121.393ZM216.766 122.026L214.68 126.57L214.702 126.581L214.725 126.591L216.766 122.026ZM221.266 125.706L217.124 128.507L217.14 128.531L217.156 128.554L221.266 125.706ZM222.906 131.307V136.307H227.906V131.307H222.906ZM214.727 131.307H209.727V136.307H214.727V131.307ZM214.188 129.034L209.758 131.354L209.78 131.395L209.802 131.436L214.188 129.034ZM205.773 128.659L209.875 131.518L209.895 131.489L209.915 131.46L205.773 128.659ZM205.656 131.776L201.496 134.55L201.556 134.639L201.619 134.726L205.656 131.776ZM206.898 132.925L204.097 137.066L204.125 137.085L204.153 137.103L206.898 132.925ZM208.867 133.956L206.898 138.552L206.914 138.559L206.931 138.566L208.867 133.956ZM211.492 134.917L209.957 139.675L209.965 139.678L209.973 139.68L211.492 134.917ZM216.32 136.862L214.045 141.314L214.074 141.329L214.104 141.344L216.32 136.862ZM219.906 139.276L216.49 142.927L216.521 142.956L216.552 142.984L219.906 139.276ZM222.133 142.323L217.553 144.33L217.565 144.357L217.577 144.383L222.133 142.323ZM219.461 153.292L222.415 157.326L222.434 157.312L222.452 157.299L219.461 153.292ZM205.117 155.12L203.821 159.949L203.847 159.956L203.873 159.963L205.117 155.12ZM200.523 153.057L197.707 157.189L197.723 157.199L197.739 157.21L200.523 153.057ZM197.219 149.471L192.844 151.892L192.859 151.92L192.875 151.947L197.219 149.471ZM196 144.245V139.245H191V144.245H196ZM204.25 144.245H209.25V139.245H204.25V144.245ZM205.82 148.44L202.654 152.31L202.69 152.339L202.726 152.368L205.82 148.44ZM207.719 149.331L206.506 154.182L206.554 154.193L206.602 154.204L207.719 149.331ZM212.828 149.143L214.93 153.68L214.976 153.659L215.02 153.637L212.828 149.143ZM214.234 147.925L218.534 150.477L218.551 150.448L218.567 150.419L214.234 147.925ZM214.68 146.237H219.68C219.68 145.218 219.53 144.139 219.134 143.071L214.445 144.807L209.757 146.544C209.673 146.32 209.68 146.194 209.68 146.237H214.68ZM214.445 144.807L219.154 143.126C218.661 141.744 217.815 140.665 216.9 139.852L213.578 143.589L210.256 147.326C210.185 147.262 209.917 146.995 209.737 146.489L214.445 144.807ZM213.578 143.589L216.9 139.852C215.979 139.033 214.896 138.418 213.879 137.94L211.75 142.464L209.621 146.988C209.888 147.113 210.069 147.214 210.184 147.284C210.303 147.357 210.312 147.375 210.256 147.326L213.578 143.589ZM211.75 142.464L213.986 137.991C212.904 137.451 211.622 136.957 210.22 136.496L208.656 141.245L207.092 145.994C208.253 146.376 209.033 146.695 209.514 146.936L211.75 142.464ZM208.656 141.245L210.237 136.501C208.891 136.053 207.602 135.551 206.37 134.997L204.32 139.557L202.271 144.118C203.82 144.814 205.422 145.437 207.075 145.988L208.656 141.245ZM204.32 139.557L206.412 135.016C205.327 134.516 204.414 133.963 203.648 133.372L200.594 137.331L197.54 141.29C198.961 142.386 200.532 143.317 202.228 144.099L204.32 139.557ZM200.594 137.331L203.683 133.399C203.073 132.92 202.65 132.414 202.352 131.882L197.992 134.331L193.633 136.779C194.615 138.529 195.927 140.023 197.505 141.262L200.594 137.331ZM197.992 134.331L202.366 131.908C202.197 131.603 202.031 131.118 202.031 130.3H197.031H192.031C192.031 132.543 192.506 134.746 193.619 136.754L197.992 134.331ZM197.031 130.3H202.031C202.031 129.604 202.178 129.139 202.378 128.782L198.016 126.339L193.653 123.896C192.54 125.882 192.031 128.057 192.031 130.3H197.031ZM198.016 126.339L202.392 128.757C202.662 128.268 203.051 127.817 203.643 127.399L200.758 123.315L197.872 119.232C196.121 120.47 194.682 122.034 193.639 123.92L198.016 126.339ZM200.758 123.315L203.654 127.391C204.305 126.928 205.148 126.518 206.253 126.215L204.93 121.393L203.606 116.572C201.524 117.143 199.585 118.015 197.862 119.239L200.758 123.315ZM204.93 121.393L206.297 126.203C207.389 125.892 208.664 125.714 210.156 125.714V120.714V115.714C207.867 115.714 205.658 115.988 203.562 116.584L204.93 121.393ZM210.156 120.714V125.714C212.073 125.714 213.541 126.048 214.68 126.57L216.766 122.026L218.851 117.482C216.177 116.255 213.24 115.714 210.156 115.714V120.714ZM216.766 122.026L214.725 126.591C215.879 127.107 216.617 127.757 217.124 128.507L221.266 125.706L225.407 122.904C223.758 120.467 221.496 118.664 218.807 117.462L216.766 122.026ZM221.266 125.706L217.156 128.554C217.6 129.195 217.906 130.039 217.906 131.307H222.906H227.906C227.906 128.263 227.119 125.373 225.375 122.858L221.266 125.706ZM222.906 131.307V126.307H214.727V131.307V136.307H222.906V131.307ZM214.727 131.307H219.727C219.727 129.735 219.392 128.128 218.573 126.632L214.188 129.034L209.802 131.436C209.758 131.355 209.736 131.287 209.727 131.248C209.718 131.212 209.727 131.227 209.727 131.307H214.727ZM214.188 129.034L218.617 126.714C217.771 125.099 216.489 123.886 214.97 123.075L212.617 127.487L210.264 131.899C210.227 131.879 210.137 131.824 210.028 131.717C209.918 131.608 209.825 131.481 209.758 131.354L214.188 129.034ZM212.617 127.487L214.97 123.075C213.342 122.207 211.589 121.925 209.969 121.925V126.925V131.925C210.211 131.925 210.343 131.946 210.389 131.956C210.432 131.965 210.377 131.959 210.264 131.899L212.617 127.487ZM209.969 126.925V121.925C208.463 121.925 206.857 122.148 205.336 122.824L207.367 127.393L209.398 131.962C209.335 131.99 209.336 131.98 209.432 131.963C209.528 131.945 209.702 131.925 209.969 131.925V126.925ZM207.367 127.393L205.336 122.824C203.95 123.44 202.612 124.409 201.632 125.857L205.773 128.659L209.915 131.46C209.793 131.64 209.661 131.772 209.551 131.86C209.445 131.944 209.381 131.97 209.398 131.962L207.367 127.393ZM205.773 128.659L201.671 125.8C200.731 127.149 200.234 128.716 200.234 130.37H205.234H210.234C210.234 130.544 210.208 130.753 210.138 130.976C210.068 131.198 209.971 131.381 209.875 131.518L205.773 128.659ZM205.234 130.37H200.234C200.234 131.855 200.657 133.292 201.496 134.55L205.656 131.776L209.817 129.003C209.941 129.189 210.052 129.415 210.129 129.671C210.206 129.928 210.234 130.167 210.234 130.37H205.234ZM205.656 131.776L201.619 134.726C202.335 135.706 203.213 136.468 204.097 137.066L206.898 132.925L209.7 128.783C209.659 128.755 209.629 128.733 209.61 128.718C209.59 128.703 209.582 128.695 209.584 128.697C209.586 128.698 209.63 128.74 209.693 128.826L205.656 131.776ZM206.898 132.925L204.153 137.103C205.001 137.661 205.931 138.137 206.898 138.552L208.867 133.956L210.837 129.36C210.272 129.118 209.889 128.907 209.644 128.746L206.898 132.925ZM208.867 133.956L206.931 138.566C207.867 138.959 208.879 139.327 209.957 139.675L211.492 134.917L213.027 130.158C212.168 129.881 211.43 129.609 210.803 129.346L208.867 133.956ZM211.492 134.917L209.973 139.68C211.576 140.192 212.925 140.742 214.045 141.314L216.32 136.862L218.596 132.41C216.903 131.545 215.033 130.798 213.012 130.153L211.492 134.917ZM216.32 136.862L214.104 141.344C215.171 141.871 215.941 142.413 216.49 142.927L219.906 139.276L223.322 135.625C221.934 134.327 220.314 133.259 218.537 132.38L216.32 136.862ZM219.906 139.276L216.552 142.984C217.047 143.432 217.355 143.879 217.553 144.33L222.133 142.323L226.712 140.316C225.91 138.486 224.734 136.901 223.261 135.568L219.906 139.276ZM222.133 142.323L217.577 144.383C217.759 144.787 217.906 145.358 217.906 146.19H222.906H227.906C227.906 144.147 227.537 142.141 226.689 140.263L222.133 142.323ZM222.906 146.19H217.906C217.906 147.064 217.74 147.638 217.543 148.032L222.016 150.268L226.488 152.504C227.478 150.523 227.906 148.378 227.906 146.19H222.906ZM222.016 150.268L217.543 148.032C217.314 148.492 216.982 148.903 216.47 149.285L219.461 153.292L222.452 157.299C224.159 156.024 225.53 154.42 226.488 152.504L222.016 150.268ZM219.461 153.292L216.507 149.258C215.965 149.654 215.214 150.032 214.161 150.319L215.477 155.143L216.792 159.967C218.833 159.411 220.738 158.554 222.415 157.326L219.461 153.292ZM215.477 155.143L214.161 150.319C213.115 150.605 211.84 150.776 210.297 150.776V155.776V160.776C212.566 160.776 214.745 160.526 216.792 159.967L215.477 155.143ZM210.297 155.776V150.776C208.969 150.776 207.66 150.611 206.361 150.277L205.117 155.12L203.873 159.963C205.981 160.504 208.125 160.776 210.297 160.776V155.776ZM205.117 155.12L206.414 150.291C205.226 149.972 204.203 149.504 203.308 148.904L200.523 153.057L197.739 157.21C199.594 158.454 201.633 159.361 203.821 159.949L205.117 155.12ZM200.523 153.057L203.34 148.926C202.597 148.419 202.016 147.792 201.563 146.996L197.219 149.471L192.875 151.947C194.077 154.058 195.7 155.82 197.707 157.189L200.523 153.057ZM197.219 149.471L201.594 147.051C201.266 146.459 201 145.583 201 144.245H196H191C191 146.938 191.546 149.547 192.844 151.892L197.219 149.471ZM196 144.245V149.245H204.25V144.245V139.245H196V144.245ZM204.25 144.245H199.25C199.25 145.655 199.433 147.151 199.984 148.578L204.648 146.776L209.312 144.974C209.333 145.026 209.25 144.834 209.25 144.245H204.25ZM204.648 146.776L199.984 148.578C200.528 149.985 201.399 151.283 202.654 152.31L205.82 148.44L208.987 144.57C209.086 144.652 209.168 144.743 209.229 144.829C209.288 144.913 209.311 144.969 209.312 144.974L204.648 146.776ZM205.82 148.44L202.726 152.368C203.886 153.282 205.191 153.853 206.506 154.182L207.719 149.331L208.931 144.48C208.837 144.457 208.8 144.439 208.805 144.441C208.808 144.442 208.82 144.448 208.84 144.46C208.86 144.472 208.885 144.49 208.915 144.513L205.82 148.44ZM207.719 149.331L206.602 154.204C207.798 154.479 209.044 154.589 210.297 154.589V149.589V144.589C209.612 144.589 209.139 144.527 208.836 144.457L207.719 149.331ZM210.297 149.589V154.589C211.749 154.589 213.392 154.393 214.93 153.68L212.828 149.143L210.726 144.607C210.872 144.539 210.931 144.538 210.849 144.553C210.767 144.567 210.591 144.589 210.297 144.589V149.589ZM212.828 149.143L215.02 153.637C216.338 152.994 217.637 151.988 218.534 150.477L214.234 147.925L209.935 145.372C210.238 144.861 210.599 144.667 210.636 144.649L212.828 149.143ZM214.234 147.925L218.567 150.419C219.312 149.126 219.68 147.7 219.68 146.237H214.68H209.68C209.68 146.132 209.693 145.995 209.734 145.84C209.775 145.685 209.835 145.546 209.901 145.43L214.234 147.925ZM244.492 144.807L239.783 146.489L239.793 146.517L239.803 146.544L244.492 144.807ZM241.797 142.464L239.561 146.936L239.614 146.962L239.668 146.988L241.797 142.464ZM238.703 141.245L237.122 145.988L237.131 145.991L237.139 145.994L238.703 141.245ZM234.367 139.557L232.275 144.099L232.296 144.108L232.317 144.118L234.367 139.557ZM230.641 137.331L227.552 141.262L227.569 141.276L227.587 141.29L230.641 137.331ZM228.039 134.331L223.665 136.754L223.673 136.767L223.68 136.779L228.039 134.331ZM228.062 126.339L232.425 128.782L232.432 128.769L232.439 128.757L228.062 126.339ZM230.805 123.315L233.69 127.399L233.701 127.391L230.805 123.315ZM234.977 121.393L236.3 126.215L236.322 126.209L236.344 126.203L234.977 121.393ZM246.812 122.026L244.727 126.57L244.749 126.581L244.771 126.591L246.812 122.026ZM251.312 125.706L247.171 128.507L247.187 128.531L247.203 128.554L251.312 125.706ZM252.953 131.307V136.307H257.953V131.307H252.953ZM244.773 131.307H239.773V136.307H244.773V131.307ZM244.234 129.034L239.805 131.354L239.827 131.395L239.849 131.436L244.234 129.034ZM235.82 128.659L239.922 131.518L239.942 131.489L239.962 131.46L235.82 128.659ZM235.703 131.776L231.543 134.55L231.603 134.639L231.666 134.726L235.703 131.776ZM236.945 132.925L234.144 137.066L234.171 137.085L234.199 137.103L236.945 132.925ZM238.914 133.956L236.944 138.552L236.961 138.559L236.978 138.566L238.914 133.956ZM241.539 134.917L240.004 139.675L240.012 139.678L240.02 139.68L241.539 134.917ZM246.367 136.862L244.092 141.314L244.121 141.329L244.151 141.344L246.367 136.862ZM249.953 139.276L246.537 142.927L246.568 142.956L246.599 142.984L249.953 139.276ZM252.18 142.323L247.6 144.33L247.612 144.357L247.624 144.383L252.18 142.323ZM249.508 153.292L252.462 157.326L252.481 157.312L252.499 157.299L249.508 153.292ZM235.164 155.12L233.867 159.949L233.894 159.956L233.92 159.963L235.164 155.12ZM230.57 153.057L227.754 157.189L227.77 157.199L227.786 157.21L230.57 153.057ZM227.266 149.471L222.89 151.892L222.906 151.92L222.922 151.947L227.266 149.471ZM226.047 144.245V139.245H221.047V144.245H226.047ZM234.297 144.245H239.297V139.245H234.297V144.245ZM235.867 148.44L232.701 152.31L232.737 152.339L232.773 152.368L235.867 148.44ZM237.766 149.331L236.553 154.182L236.601 154.193L236.649 154.204L237.766 149.331ZM242.875 149.143L244.977 153.68L245.022 153.659L245.067 153.637L242.875 149.143ZM244.281 147.925L248.581 150.477L248.598 150.448L248.614 150.419L244.281 147.925ZM244.727 146.237H249.727C249.727 145.218 249.577 144.139 249.181 143.071L244.492 144.807L239.803 146.544C239.72 146.32 239.727 146.194 239.727 146.237H244.727ZM244.492 144.807L249.201 143.126C248.708 141.744 247.862 140.665 246.947 139.852L243.625 143.589L240.303 147.326C240.231 147.262 239.964 146.995 239.783 146.489L244.492 144.807ZM243.625 143.589L246.947 139.852C246.025 139.033 244.942 138.418 243.926 137.94L241.797 142.464L239.668 146.988C239.934 147.113 240.116 147.214 240.231 147.284C240.35 147.357 240.359 147.375 240.303 147.326L243.625 143.589ZM241.797 142.464L244.033 137.991C242.951 137.451 241.669 136.957 240.267 136.496L238.703 141.245L237.139 145.994C238.3 146.376 239.08 146.695 239.561 146.936L241.797 142.464ZM238.703 141.245L240.284 136.501C238.938 136.053 237.649 135.551 236.417 134.997L234.367 139.557L232.317 144.118C233.867 144.814 235.469 145.437 237.122 145.988L238.703 141.245ZM234.367 139.557L236.459 135.016C235.374 134.516 234.461 133.963 233.695 133.372L230.641 137.331L227.587 141.29C229.008 142.386 230.579 143.317 232.275 144.099L234.367 139.557ZM230.641 137.331L233.73 133.399C233.12 132.92 232.697 132.414 232.399 131.882L228.039 134.331L223.68 136.779C224.662 138.529 225.974 140.023 227.552 141.262L230.641 137.331ZM228.039 134.331L232.413 131.908C232.244 131.603 232.078 131.118 232.078 130.3H227.078H222.078C222.078 132.543 222.553 134.746 223.665 136.754L228.039 134.331ZM227.078 130.3H232.078C232.078 129.604 232.225 129.139 232.425 128.782L228.062 126.339L223.7 123.896C222.587 125.882 222.078 128.057 222.078 130.3H227.078ZM228.062 126.339L232.439 128.757C232.709 128.268 233.098 127.817 233.69 127.399L230.805 123.315L227.919 119.232C226.167 120.47 224.728 122.034 223.686 123.92L228.062 126.339ZM230.805 123.315L233.701 127.391C234.352 126.928 235.195 126.518 236.3 126.215L234.977 121.393L233.653 116.572C231.571 117.143 229.632 118.015 227.909 119.239L230.805 123.315ZM234.977 121.393L236.344 126.203C237.435 125.892 238.711 125.714 240.203 125.714V120.714V115.714C237.914 115.714 235.705 115.988 233.609 116.584L234.977 121.393ZM240.203 120.714V125.714C242.119 125.714 243.588 126.048 244.727 126.57L246.812 122.026L248.898 117.482C246.224 116.255 243.287 115.714 240.203 115.714V120.714ZM246.812 122.026L244.771 126.591C245.926 127.107 246.664 127.757 247.171 128.507L251.312 125.706L255.454 122.904C253.805 120.467 251.543 118.664 248.854 117.462L246.812 122.026ZM251.312 125.706L247.203 128.554C247.647 129.195 247.953 130.039 247.953 131.307H252.953H257.953C257.953 128.263 257.166 125.373 255.422 122.858L251.312 125.706ZM252.953 131.307V126.307H244.773V131.307V136.307H252.953V131.307ZM244.773 131.307H249.773C249.773 129.735 249.439 128.128 248.62 126.632L244.234 129.034L239.849 131.436C239.805 131.355 239.783 131.287 239.774 131.248C239.765 131.212 239.773 131.227 239.773 131.307H244.773ZM244.234 129.034L248.664 126.714C247.818 125.099 246.536 123.886 245.017 123.075L242.664 127.487L240.311 131.899C240.274 131.879 240.184 131.824 240.075 131.717C239.964 131.608 239.872 131.481 239.805 131.354L244.234 129.034ZM242.664 127.487L245.017 123.075C243.389 122.207 241.636 121.925 240.016 121.925V126.925V131.925C240.257 131.925 240.39 131.946 240.436 131.956C240.479 131.965 240.424 131.959 240.311 131.899L242.664 127.487ZM240.016 126.925V121.925C238.51 121.925 236.904 122.148 235.383 122.824L237.414 127.393L239.445 131.962C239.382 131.99 239.383 131.98 239.478 131.963C239.575 131.945 239.749 131.925 240.016 131.925V126.925ZM237.414 127.393L235.383 122.824C233.997 123.44 232.659 124.409 231.679 125.857L235.82 128.659L239.962 131.46C239.84 131.64 239.708 131.772 239.598 131.86C239.492 131.944 239.428 131.97 239.445 131.962L237.414 127.393ZM235.82 128.659L231.718 125.8C230.778 127.149 230.281 128.716 230.281 130.37H235.281H240.281C240.281 130.544 240.255 130.753 240.185 130.976C240.115 131.198 240.017 131.381 239.922 131.518L235.82 128.659ZM235.281 130.37H230.281C230.281 131.855 230.704 133.292 231.543 134.55L235.703 131.776L239.863 129.003C239.987 129.189 240.099 129.415 240.176 129.671C240.253 129.928 240.281 130.167 240.281 130.37H235.281ZM235.703 131.776L231.666 134.726C232.382 135.706 233.26 136.468 234.144 137.066L236.945 132.925L239.747 128.783C239.705 128.755 239.676 128.733 239.657 128.718C239.637 128.703 239.629 128.695 239.631 128.697C239.633 128.698 239.677 128.74 239.74 128.826L235.703 131.776ZM236.945 132.925L234.199 137.103C235.048 137.661 235.978 138.137 236.944 138.552L238.914 133.956L240.884 129.36C240.319 129.118 239.936 128.907 239.691 128.746L236.945 132.925ZM238.914 133.956L236.978 138.566C237.914 138.959 238.926 139.327 240.004 139.675L241.539 134.917L243.074 130.158C242.215 129.881 241.477 129.609 240.85 129.346L238.914 133.956ZM241.539 134.917L240.02 139.68C241.623 140.192 242.972 140.742 244.092 141.314L246.367 136.862L248.643 132.41C246.95 131.545 245.08 130.798 243.058 130.153L241.539 134.917ZM246.367 136.862L244.151 141.344C245.217 141.871 245.987 142.413 246.537 142.927L249.953 139.276L253.369 135.625C251.981 134.327 250.361 133.259 248.584 132.38L246.367 136.862ZM249.953 139.276L246.599 142.984C247.094 143.432 247.402 143.879 247.6 144.33L252.18 142.323L256.759 140.316C255.957 138.486 254.781 136.901 253.308 135.568L249.953 139.276ZM252.18 142.323L247.624 144.383C247.806 144.787 247.953 145.358 247.953 146.19H252.953H257.953C257.953 144.147 257.584 142.141 256.736 140.263L252.18 142.323ZM252.953 146.19H247.953C247.953 147.064 247.787 147.638 247.59 148.032L252.062 150.268L256.535 152.504C257.525 150.523 257.953 148.378 257.953 146.19H252.953ZM252.062 150.268L247.59 148.032C247.361 148.492 247.029 148.903 246.517 149.285L249.508 153.292L252.499 157.299C254.206 156.024 255.577 154.42 256.535 152.504L252.062 150.268ZM249.508 153.292L246.553 149.258C246.012 149.654 245.261 150.032 244.208 150.319L245.523 155.143L246.839 159.967C248.88 159.411 250.785 158.554 252.462 157.326L249.508 153.292ZM245.523 155.143L244.208 150.319C243.161 150.605 241.887 150.776 240.344 150.776V155.776V160.776C242.613 160.776 244.792 160.526 246.839 159.967L245.523 155.143ZM240.344 155.776V150.776C239.015 150.776 237.707 150.611 236.408 150.277L235.164 155.12L233.92 159.963C236.028 160.504 238.172 160.776 240.344 160.776V155.776ZM235.164 155.12L236.461 150.291C235.273 149.972 234.249 149.504 233.355 148.904L230.57 153.057L227.786 157.21C229.641 158.454 231.68 159.361 233.867 159.949L235.164 155.12ZM230.57 153.057L233.387 148.926C232.644 148.419 232.063 147.792 231.61 146.996L227.266 149.471L222.922 151.947C224.124 154.058 225.747 155.82 227.754 157.189L230.57 153.057ZM227.266 149.471L231.641 147.051C231.313 146.459 231.047 145.583 231.047 144.245H226.047H221.047C221.047 146.938 221.593 149.547 222.89 151.892L227.266 149.471ZM226.047 144.245V149.245H234.297V144.245V139.245H226.047V144.245ZM234.297 144.245H229.297C229.297 145.655 229.48 147.151 230.031 148.578L234.695 146.776L239.359 144.974C239.38 145.026 239.297 144.834 239.297 144.245H234.297ZM234.695 146.776L230.031 148.578C230.575 149.985 231.446 151.283 232.701 152.31L235.867 148.44L239.033 144.57C239.133 144.652 239.215 144.743 239.276 144.829C239.335 144.913 239.357 144.969 239.359 144.974L234.695 146.776ZM235.867 148.44L232.773 152.368C233.933 153.282 235.238 153.853 236.553 154.182L237.766 149.331L238.978 144.48C238.884 144.457 238.847 144.439 238.852 144.441C238.855 144.442 238.867 144.448 238.887 144.46C238.906 144.472 238.932 144.49 238.962 144.513L235.867 148.44ZM237.766 149.331L236.649 154.204C237.845 154.479 239.091 154.589 240.344 154.589V149.589V144.589C239.659 144.589 239.186 144.527 238.883 144.457L237.766 149.331ZM240.344 149.589V154.589C241.796 154.589 243.438 154.393 244.977 153.68L242.875 149.143L240.773 144.607C240.919 144.539 240.978 144.538 240.895 144.553C240.814 144.567 240.638 144.589 240.344 144.589V149.589ZM242.875 149.143L245.067 153.637C246.385 152.994 247.683 151.988 248.581 150.477L244.281 147.925L239.982 145.372C240.285 144.861 240.646 144.667 240.683 144.649L242.875 149.143ZM244.281 147.925L248.614 150.419C249.359 149.126 249.727 147.7 249.727 146.237H244.727H239.727C239.727 146.132 239.74 145.995 239.781 145.84C239.822 145.685 239.881 145.546 239.948 145.43L244.281 147.925Z" fill="black" mask="url(#path-9-outside-5_1_90)"/>
</g>
</g>
<defs>
<filter id="filter0_d_1_90" x="4" y="25.9949" width="272.264" height="145.336" filterUnits="userSpaceOnUse" color-interpolation-filters="sRGB">
<feFlood flood-opacity="0" result="BackgroundImageFix"/>
<feColorMatrix in="SourceAlpha" type="matrix" values="0 0 0 0 0 0 0 0 0 0 0 0 0 0 0 0 0 0 127 0" result="hardAlpha"/>
<feOffset dy="10"/>
<feComposite in2="hardAlpha" operator="out"/>
<feColorMatrix type="matrix" values="0 0 0 0 0 0 0 0 0 0 0 0 0 0 0 0 0 0 0.25 0"/>
<feBlend mode="normal" in2="BackgroundImageFix" result="effect1_dropShadow_1_90"/>
<feBlend mode="normal" in="SourceGraphic" in2="effect1_dropShadow_1_90" result="shape"/>
</filter>
<filter id="filter1_d_1_90" x="0" y="25.9949" width="86.5818" height="109.562" filterUnits="userSpaceOnUse" color-interpolation-filters="sRGB">
<feFlood flood-opacity="0" result="BackgroundImageFix"/>
<feColorMatrix in="SourceAlpha" type="matrix" values="0 0 0 0 0 0 0 0 0 0 0 0 0 0 0 0 0 0 127 0" result="hardAlpha"/>
<feOffset dx="-4" dy="10"/>
<feComposite in2="hardAlpha" operator="out"/>
<feColorMatrix type="matrix" values="0 0 0 0 0 0 0 0 0 0 0 0 0 0 0 0 0 0 1 0"/>
<feBlend mode="normal" in2="BackgroundImageFix" result="effect1_dropShadow_1_90"/>
<feBlend mode="normal" in="SourceGraphic" in2="effect1_dropShadow_1_90" result="shape"/>
</filter>
<filter id="filter2_d_1_90" x="59.9518" y="29.1417" width="99.452" height="114.357" filterUnits="userSpaceOnUse" color-interpolation-filters="sRGB">
<feFlood flood-opacity="0" result="BackgroundImageFix"/>
<feColorMatrix in="SourceAlpha" type="matrix" values="0 0 0 0 0 0 0 0 0 0 0 0 0 0 0 0 0 0 127 0" result="hardAlpha"/>
<feOffset dx="-4" dy="10"/>
<feComposite in2="hardAlpha" operator="out"/>
<feColorMatrix type="matrix" values="0 0 0 0 0 0 0 0 0 0 0 0 0 0 0 0 0 0 1 0"/>
<feBlend mode="normal" in2="BackgroundImageFix" result="effect1_dropShadow_1_90"/>
<feBlend mode="normal" in="SourceGraphic" in2="effect1_dropShadow_1_90" result="shape"/>
</filter>
<filter id="filter3_d_1_90" x="128.562" y="30.3074" width="83.3125" height="107" filterUnits="userSpaceOnUse" color-interpolation-filters="sRGB">
<feFlood flood-opacity="0" result="BackgroundImageFix"/>
<feColorMatrix in="SourceAlpha" type="matrix" values="0 0 0 0 0 0 0 0 0 0 0 0 0 0 0 0 0 0 127 0" result="hardAlpha"/>
<feOffset dx="-4" dy="10"/>
<feComposite in2="hardAlpha" operator="out"/>
<feColorMatrix type="matrix" values="0 0 0 0 0 0 0 0 0 0 0 0 0 0 0 0 0 0 1 0"/>
<feBlend mode="normal" in2="BackgroundImageFix" result="effect1_dropShadow_1_90"/>
<feBlend mode="normal" in="SourceGraphic" in2="effect1_dropShadow_1_90" result="shape"/>
</filter>
<filter id="filter4_d_1_90" x="191.583" y="27.9683" width="84.6818" height="109.03" filterUnits="userSpaceOnUse" color-interpolation-filters="sRGB">
<feFlood flood-opacity="0" result="BackgroundImageFix"/>
<feColorMatrix in="SourceAlpha" type="matrix" values="0 0 0 0 0 0 0 0 0 0 0 0 0 0 0 0 0 0 127 0" result="hardAlpha"/>
<feOffset dx="-4" dy="10"/>
<feComposite in2="hardAlpha" operator="out"/>
<feColorMatrix type="matrix" values="0 0 0 0 0 0 0 0 0 0 0 0 0 0 0 0 0 0 1 0"/>
<feBlend mode="normal" in2="BackgroundImageFix" result="effect1_dropShadow_1_90"/>
<feBlend mode="normal" in="SourceGraphic" in2="effect1_dropShadow_1_90" result="shape"/>
</filter>
<filter id="filter5_d_1_90" x="25.2266" y="115.159" width="232.727" height="50.1718" filterUnits="userSpaceOnUse" color-interpolation-filters="sRGB">
<feFlood flood-opacity="0" result="BackgroundImageFix"/>
<feColorMatrix in="SourceAlpha" type="matrix" values="0 0 0 0 0 0 0 0 0 0 0 0 0 0 0 0 0 0 127 0" result="hardAlpha"/>
<feOffset dy="4"/>
<feComposite in2="hardAlpha" operator="out"/>
<feColorMatrix type="matrix" values="0 0 0 0 0 0 0 0 0 0 0 0 0 0 0 0 0 0 1 0"/>
<feBlend mode="normal" in2="BackgroundImageFix" result="effect1_dropShadow_1_90"/>
<feBlend mode="normal" in="SourceGraphic" in2="effect1_dropShadow_1_90" result="shape"/>
</filter>
</defs>
</svg>
